<?xml version="1.0" encoding="utf-8"?>
<!-- Generator: Adobe Illustrator 25.2.0, SVG Export Plug-In . SVG Version: 6.00 Build 0)  -->
<svg version="1.1" id="Capa_1" xmlns="http://www.w3.org/2000/svg" xmlns:xlink="http://www.w3.org/1999/xlink" x="0px" y="0px"
	 viewBox="0 0 600 600" style="enable-background:new 0 0 600 600;" xml:space="preserve">
<style type="text/css">
	.st0{fill:#F39200;}
	.st1{clip-path:url(#SVGID_2_);fill:#0B3C5D;}
	.st2{clip-path:url(#SVGID_4_);fill:#C4312B;}
	.st3{clip-path:url(#SVGID_6_);fill:#328CC1;}
	.st4{clip-path:url(#SVGID_8_);fill:#D9B310;}
</style>
<g>
	<g>
		<g>
			<g>
				<g>
					<path class="st0" d="M397.7,80H92.3v96.2l47.8,12.6v223.1l-47.8,12.6V520h154c-0.5-0.4-4.2-3.6-10.1-17c0,0-7.7-24.9,8.9-48.5
						c0,0,7.7-11.8,30.7-15.7l14-1.3c0,0,1.9-2-0.6-2c0,0-20.4-2.6-33.2,0c0,0-2.6,0-3.8-3.9c0,0,1.3-9.2,0-13.1
						c0,0-11.5-21-12.8-41.9c0,0-1.3-48.5,5.1-59c0,0-12.8,19.7-10.2,55c0,0,0,27.5,7.7,40.6c0,0-14.1-9.2-24.3-60.3
						c0,0,5.1,5.2,8.9,3.9l1.3-1.3c0,0-23-19.7-23-31.5c0,0,12.8,6.5,17.9,2.6c0,0-26.8-15.7-29.4-27.5c0,0-6.4-21,1.3-28.8
						c0,0,3.8,18.4,11.5,15.7c0,0-7.7-7.9-6.4-23.6c0,0-11.5-22.3-6.4-43.2c0,0-10.2,10.5-3.8,40.6c0,0-12.8-1.3-17.9-15.7
						c0,0-16.6-10.5-14.1-28.8c0,0-16.6-18.4-6.4-38c0,0-1.3-5.2,2.6-6.6c0,0,30.7-34.1,60.1-43.2l17.9-9.2c0,0,2.6-2.6,7.7-3.9
						l30.7,5.2l11.5,2.6c0,0,3.8,0,3.8,7.9l1.3,19.7c0,0,0,2.6-2.6,3.9l-5.1,2.6l-2.6,1.3l-5.1-1.3c0,0-6.4-9.2-10.2-10.5
						c0,0-12.8-2.6-14.1-9.2c0,0-3.8-3.9-11.5-3.9l-8.9,5.2l7.7-1.3h1.3l-3.8,7.9l-3.8,3.9c0,0-16.6,28.8-26.8,31.4
						c0,0-3.8,2.6-7.7,2.6h-8.9c0,0-2.6,1.3,0,2.6h21.1h0.6c0,0,6.4,0,8.9,2.6c0,0,5.1,5.2,5.1,7.9v3.9c0,0,0,2.6-11.5,5.2
						c0,0-5.1,1.3,0,1.3c0,0,10.2-3.9,25.6-2.6c0,0,11.5-1.3,19.2,3.9c0,0,6.4,1.3,14,17c0,0,1.3,5.2,1.3,9.2l-1.3,1.3l-24.3,1.3
						c0,0-1.3,0-2.6,1.3c0,0-2.6,2.6-2.6,5.2c0,0,0,2.6,2.6,1.3c0,0,0-1.3,2.6-2.6l28.7-0.7c0,0,12.8-3.9,16.6-15.7v-22.3
						c0,0,3.8-18.4,24.3-23.6c0,0,21.7-7.9,39.6,9.2c0,0,8.9,5.2,14,21v24.9c0,0,0,2.6-1.3,3.9c0,0-5.1-1.3-3.8,5.2l2.6,17
						c0,0-1.3,2.6-5.1,2.6h-1.3l-1.3,7.9l-3.8,1.3v5.2h-3.8c0,0-3.8,2.6-3.8,6.5c0,0-1.3,5.2-6.4,5.2c0,0-3.8-1.3-5.1-2.6
						c0,0-2.6-5.2-10.2-6.5c0,0-6.4-2.6-7.7,2.6l28.1,41.9c0,0,3.8-1.3,3.8-3.9l-10.2-17c0,0,5.1-7.9,23-3.9c0,0,16.6,3.9,25.5,27.5
						c0,0,2.6,6.5-2.6,24.9l-2.6,3.9l2.6,1.3c0,0,3.8-3.9,5.1-6.5l3.8-6.5c0,0,3.8-5.2,12.8-2.6c0,0,11.5,3.9,14,10.5
						c0,0,2.6,3.9,0,15.7c0,0-1.3,5.2,2.6,1.3c0,0,10.2-15.7,26.8-22.3c0,0,19.2-15.7,20.4-22.3c0,0,1.3-10.5-5.1-13.1h-8.9
						c0,0-3.8-3.9-2.6-5.2v-11.8c0,0,2.6-3.9,11.5-7.9l7.7-3.9c0,0,7.7-1.3,10.2,2.6l11.5,22.3c0,0,3.8,7.9,0,21
						c0,0-6.4-1.3-12.8,28.8c0,0-1.3,36.7-34.5,59l-7.7,9.2l-2.6,2.6c0,0-2.6,1.3-6.4,0c0,0-11.5-2.6-15.3-2.6
						c0,0-11.5-2.6-20.4-2.6c0,0-12.8-1.3-24.3-5.2c0,0-17.9-7.9-31.9-24.9c0,0-5.1-6.5-7.7-14.4c0,0-1.3,10.5,3.8,18.4
						c0,0-7.7,6.5-17.9,6.5c0,0-8.9,0-17.9-3.9c0,0-11.5-5.2-20.4-23.6c0,0,1.3,22.3,20.4,31.5c0,0,14,5.2,26.8,1.3l7.7-2.6
						c0,0,3.8-2.6,6.4,0l8.9,9.2c0,0,2.6,2.6,1.3,10.5l-8.9,26.2c0,0-2.6,7.9,0,17c0,0,26.6,46.9,33.1,51.1h21.9l113.1-94.3V171.1
						L397.7,80z"/>
				</g>
			</g>
		</g>
	</g>
</g>
<g>
	<g>
		<g>
			<defs>
				<rect id="SVGID_1_" x="702" y="61.7" width="400" height="400"/>
			</defs>
			<clipPath id="SVGID_2_">
				<use xlink:href="#SVGID_1_"  style="overflow:visible;"/>
			</clipPath>
			<rect x="747" y="169.7" class="st1" width="93" height="93"/>
		</g>
		<g>
			<defs>
				<rect id="SVGID_3_" x="702" y="61.7" width="400" height="400"/>
			</defs>
			<clipPath id="SVGID_4_">
				<use xlink:href="#SVGID_3_"  style="overflow:visible;"/>
			</clipPath>
			<rect x="747" y="288.7" class="st2" width="93" height="93"/>
		</g>
		<g>
			<defs>
				<rect id="SVGID_5_" x="702" y="61.7" width="400" height="400"/>
			</defs>
			<clipPath id="SVGID_6_">
				<use xlink:href="#SVGID_5_"  style="overflow:visible;"/>
			</clipPath>
			<rect x="846" y="169.7" class="st3" width="93" height="93"/>
		</g>
		<g>
			<defs>
				<rect id="SVGID_7_" x="702" y="61.7" width="400" height="400"/>
			</defs>
			<clipPath id="SVGID_8_">
				<use xlink:href="#SVGID_7_"  style="overflow:visible;"/>
			</clipPath>
			<rect x="945" y="169.7" class="st4" width="93" height="93"/>
		</g>
	</g>
</g>
</svg>
