<?xml version="1.0" encoding="utf-8"?>
<!-- Generator: Adobe Illustrator 25.2.0, SVG Export Plug-In . SVG Version: 6.00 Build 0)  -->
<svg version="1.1" id="Capa_1" xmlns="http://www.w3.org/2000/svg" xmlns:xlink="http://www.w3.org/1999/xlink" x="0px" y="0px"
	 viewBox="0 0 600 600" style="enable-background:new 0 0 600 600;" xml:space="preserve">
<style type="text/css">
	.st0{fill:#F39200;}
	.st1{clip-path:url(#SVGID_2_);fill:#0B3C5D;}
	.st2{clip-path:url(#SVGID_2_);fill:#C4312B;}
	.st3{clip-path:url(#SVGID_2_);fill:#328CC1;}
	.st4{clip-path:url(#SVGID_2_);fill:#D9B310;}
</style>
<g>
	<g>
		<g>
			<g>
				<g>
					<path class="st0" d="M397.73,80.02H92.28v96.16l47.77,12.57v223.12l-47.77,12.57v95.53h153.96c-0.51-0.4-4.23-3.62-10.15-16.99
						c0,0-7.67-24.9,8.94-48.49c0,0,7.67-11.8,30.66-15.73l14.05-1.31c0,0,1.92-1.97-0.64-1.97c0,0-20.44-2.62-33.22,0
						c0,0-2.56,0-3.83-3.93c0,0,1.28-9.17,0-13.11c0,0-11.5-20.97-12.78-41.94c0,0-1.28-48.49,5.11-58.98
						c0,0-12.78,19.66-10.22,55.05c0,0,0,27.52,7.67,40.63c0,0-14.05-9.17-24.27-60.29c0,0,5.11,5.24,8.94,3.93l1.28-1.31
						c0,0-23-19.66-23-31.45c0,0,12.78,6.55,17.89,2.62c0,0-26.83-15.73-29.38-27.52c0,0-6.39-20.97,1.28-28.83
						c0,0,3.83,18.35,11.5,15.73c0,0-7.67-7.86-6.39-23.59c0,0-11.5-22.28-6.39-43.25c0,0-10.22,10.48-3.83,40.63
						c0,0-12.78-1.31-17.89-15.73c0,0-16.61-10.48-14.05-28.83c0,0-16.61-18.35-6.39-38.01c0,0-1.28-5.24,2.56-6.55
						c0,0,30.66-34.08,60.05-43.25l17.89-9.17c0,0,2.56-2.62,7.67-3.93l30.66,5.24l11.5,2.62c0,0,3.83,0,3.83,7.86l1.28,19.66
						c0,0,0,2.62-2.56,3.93l-5.11,2.62l-2.56,1.31l-5.11-1.31c0,0-6.39-9.17-10.22-10.48c0,0-12.78-2.62-14.05-9.17
						c0,0-3.83-3.93-11.5-3.93l-8.94,5.24l7.67-1.31h1.28l-3.83,7.86l-3.83,3.93c0,0-16.61,28.83-26.83,31.45
						c0,0-3.83,2.62-7.67,2.62h-8.94c0,0-2.56,1.31,0,2.62h21.15h0.57c0,0,6.39,0,8.94,2.62c0,0,5.11,5.24,5.11,7.86v3.93
						c0,0,0,2.62-11.5,5.24c0,0-5.11,1.31,0,1.31c0,0,10.22-3.93,25.55-2.62c0,0,11.5-1.31,19.16,3.93c0,0,6.39,1.31,14.05,17.04
						c0,0,1.28,5.24,1.28,9.17l-1.28,1.31l-24.27,1.31c0,0-1.28,0-2.56,1.31c0,0-2.56,2.62-2.56,5.24c0,0,0,2.62,2.56,1.31
						c0,0,0-1.31,2.56-2.62l28.75-0.66c0,0,12.78-3.93,16.61-15.73v-22.28c0,0,3.83-18.35,24.27-23.59c0,0,21.72-7.86,39.61,9.17
						c0,0,8.94,5.24,14.05,20.97v24.9c0,0,0,2.62-1.28,3.93c0,0-5.11-1.31-3.83,5.24l2.56,17.04c0,0-1.28,2.62-5.11,2.62h-1.28
						l-1.28,7.86l-3.83,1.31v5.24h-3.83c0,0-3.83,2.62-3.83,6.55c0,0-1.28,5.24-6.39,5.24c0,0-3.83-1.31-5.11-2.62
						c0,0-2.56-5.24-10.22-6.55c0,0-6.39-2.62-7.67,2.62l28.11,41.94c0,0,3.83-1.31,3.83-3.93l-10.22-17.04c0,0,5.11-7.86,23-3.93
						c0,0,16.61,3.93,25.55,27.52c0,0,2.56,6.55-2.56,24.9l-2.56,3.93l2.56,1.31c0,0,3.83-3.93,5.11-6.55l3.83-6.55
						c0,0,3.83-5.24,12.78-2.62c0,0,11.5,3.93,14.05,10.48c0,0,2.56,3.93,0,15.73c0,0-1.28,5.24,2.56,1.31
						c0,0,10.22-15.73,26.83-22.28c0,0,19.16-15.73,20.44-22.28c0,0,1.28-10.48-5.11-13.11h-8.94c0,0-3.83-3.93-2.56-5.24v-11.8
						c0,0,2.56-3.93,11.5-7.86l7.67-3.93c0,0,7.67-1.31,10.22,2.62l11.5,22.28c0,0,3.83,7.86,0,20.97c0,0-6.39-1.31-12.78,28.83
						c0,0-1.28,36.7-34.5,58.98l-7.67,9.17l-2.56,2.62c0,0-2.56,1.31-6.39,0c0,0-11.5-2.62-15.33-2.62c0,0-11.5-2.62-20.44-2.62
						c0,0-12.78-1.31-24.27-5.24c0,0-17.89-7.86-31.94-24.9c0,0-5.11-6.55-7.67-14.42c0,0-1.28,10.48,3.83,18.35
						c0,0-7.67,6.55-17.89,6.55c0,0-8.94,0-17.89-3.93c0,0-11.5-5.24-20.44-23.59c0,0,1.28,22.28,20.44,31.45
						c0,0,14.05,5.24,26.83,1.31l7.67-2.62c0,0,3.83-2.62,6.39,0l8.94,9.17c0,0,2.56,2.62,1.28,10.48l-8.94,26.21
						c0,0-2.56,7.86,0,17.04c0,0,26.65,46.87,33.15,51.06h21.88l113.13-94.28V171.15L397.73,80.02z"/>
				</g>
			</g>
		</g>
	</g>
</g>
<g>
	<g>
		<defs>
			<rect id="SVGID_1_" x="702.02" y="61.68" width="400" height="400"/>
		</defs>
		<clipPath id="SVGID_2_">
			<use xlink:href="#SVGID_1_"  style="overflow:visible;"/>
		</clipPath>
		<rect x="747.02" y="169.68" class="st1" width="93" height="93"/>
		<rect x="747.02" y="288.68" class="st2" width="93" height="93"/>
		<rect x="846.02" y="169.68" class="st3" width="93" height="93"/>
		<rect x="945.02" y="169.68" class="st4" width="93" height="93"/>
	</g>
</g>
</svg>
